<?xml version="1.0" encoding="UTF-8"?>
<svg version="1.1" xmlns="http://www.w3.org/2000/svg" width="4500" height="4500">
<path d="M0 0 C1.1498812 -0.00424107 1.1498812 -0.00424107 2.32299232 -0.00856781 C6.39868107 -0.02343114 10.47433575 -0.03273533 14.55004883 -0.03710938 C17.82555594 -0.04144312 21.10079205 -0.05515287 24.3762207 -0.078125 C54.45863966 -0.28449028 84.33871112 1.22929606 114.14453125 5.515625 C114.88655792 5.61917297 115.62858459 5.72272095 116.39309692 5.82940674 C188.81812342 15.9527124 258.52743098 37.47030191 324.33203125 69.203125 C325.31349121 69.67459961 326.29495117 70.14607422 327.30615234 70.63183594 C341.65621289 77.55979047 355.57904588 85.15870521 369.33203125 93.203125 C370.71745117 94.01257568 370.71745117 94.01257568 372.13085938 94.83837891 C404.24229604 113.72049038 434.95277702 135.38288612 463.26171875 159.6015625 C466.0093717 161.94570201 468.82003353 164.20195816 471.64453125 166.453125 C478.55111592 172.07289331 484.93222766 178.25082203 491.38916016 184.37353516 C493.67869297 186.52957422 495.99741155 188.65150363 498.32226562 190.76928711 C508.10462351 199.69037218 517.86398606 208.86457141 526.40625 218.99609375 C528.65470591 221.57292456 530.99435082 224.05180551 533.34155273 226.53857422 C538.75834689 232.27934102 544.02200967 238.05782121 548.94921875 244.23046875 C550.76486395 246.49556055 552.60102348 248.73213057 554.46484375 250.95703125 C573.02045155 273.14503665 590.00220462 296.67446278 605.33203125 321.203125 C605.9544873 322.19779785 606.57694336 323.1924707 607.21826172 324.21728516 C617.98586981 341.50246762 628.06106674 359.0609921 637.33203125 377.203125 C637.63691467 377.79851074 637.9417981 378.39389648 638.25592041 379.00732422 C673.86518446 448.70996535 696.4201466 524.46007481 707.58203125 610.640625 C707.73317383 611.88021973 707.88431641 613.11981445 708.04003906 614.39697266 C710.82220016 638.84921699 711.71249002 663.26536329 711.65008926 687.8501091 C711.64442909 690.11907777 711.64162097 692.3880389 711.63900757 694.65701294 C711.60005254 717.95128357 710.99653219 741.04335218 708.33203125 764.203125 C708.15851833 765.76218778 707.9851826 767.32127029 707.81201172 768.88037109 C702.22342272 818.46083767 691.23183872 866.92188851 675.33203125 914.203125 C675.11869141 914.83865295 674.90535156 915.47418091 674.68554688 916.12896729 C655.56967296 972.90127475 628.34346142 1027.86069173 594.33203125 1077.203125 C593.82768555 1077.94030762 593.32333984 1078.67749023 592.80371094 1079.43701172 C581.06442166 1096.56936554 568.72687509 1113.32137082 555.33203125 1129.203125 C554.48640625 1130.20988281 553.64078125 1131.21664062 552.76953125 1132.25390625 C550.45546038 1135.00264382 548.12964534 1137.74118644 545.79980469 1140.4765625 C544.27756049 1142.26719972 542.76169181 1144.06311063 541.24609375 1145.859375 C536.429902 1151.54759393 531.61269713 1157.11325123 526.24169922 1162.29248047 C524.47920807 1164.05587292 522.86478655 1165.86831787 521.25390625 1167.76953125 C516.70542119 1173.00502393 511.80701595 1177.87408906 506.89453125 1182.765625 C505.99154297 1183.67248047 505.08855469 1184.57933594 504.15820312 1185.51367188 C499.61632844 1190.0489689 495.02391855 1194.45233907 490.15258789 1198.63208008 C487.28960196 1201.10268682 484.53510809 1203.68719245 481.76953125 1206.265625 C468.87695678 1218.203125 468.87695678 1218.203125 466.33203125 1218.203125 C470.46967149 1222.62924613 475.0553514 1226.09691716 479.95703125 1229.640625 C481.67060937 1230.89187717 483.38415001 1232.14318065 485.09765625 1233.39453125 C485.96970703 1234.02891113 486.84175781 1234.66329102 487.74023438 1235.31689453 C491.73750093 1238.22598283 495.72433489 1241.1491296 499.70703125 1244.078125 C500.48449707 1244.64974365 501.26196289 1245.2213623 502.06298828 1245.81030273 C508.93126289 1250.87612958 515.71287015 1256.05211047 522.49121094 1261.23730469 C531.35480762 1268.00688075 540.33365902 1274.61435872 549.33203125 1281.203125 C560.2559798 1289.2018321 571.0979112 1297.29059159 581.84716797 1305.52294922 C587.14649591 1309.5705139 592.49950558 1313.51073104 597.95532227 1317.34350586 C603.26661517 1321.10053858 608.42010969 1325.05691393 613.58203125 1329.015625 C620.09730693 1334.01160178 626.65226699 1338.92919663 633.33203125 1343.703125 C640.81480825 1349.05379796 648.13865296 1354.59319109 655.44091797 1360.18701172 C664.31766288 1366.97856054 673.31448736 1373.60032089 682.33203125 1380.203125 C693.2559798 1388.2018321 704.0979112 1396.29059159 714.84716797 1404.52294922 C719.61929221 1408.16784188 724.41947409 1411.75002083 729.33203125 1415.203125 C735.17323316 1419.30898636 740.85132939 1423.61211187 746.51953125 1427.953125 C756.36764683 1435.49444289 766.32442314 1442.87537847 776.33203125 1450.203125 C787.2559798 1458.2018321 798.0979112 1466.29059159 808.84716797 1474.52294922 C813.61927483 1478.16782861 818.41921902 1481.75039879 823.33203125 1485.203125 C830.46915268 1490.23096446 837.38874795 1495.53359316 844.31445312 1500.84765625 C845.18005859 1501.51152344 846.04566406 1502.17539063 846.9375 1502.859375 C847.71246826 1503.45556641 848.48743652 1504.05175781 849.28588867 1504.66601562 C850.92822042 1505.89977301 852.62289972 1507.06370398 854.33203125 1508.203125 C854.33203125 1508.863125 854.33203125 1509.523125 854.33203125 1510.203125 C707.31703125 1510.698125 707.31703125 1510.698125 557.33203125 1511.203125 C568.8274132 1528.09466156 568.8274132 1528.09466156 580.45703125 1544.890625 C586.98004352 1554.2412605 593.43643265 1563.63535536 599.86328125 1573.05224609 C607.27834092 1583.91106851 614.77168448 1594.71422874 622.28833008 1605.50292969 C627.02724608 1612.31102869 631.72433701 1619.14623939 636.39794922 1625.99926758 C640.67288569 1632.25941787 644.99709015 1638.48441099 649.33203125 1644.703125 C655.89417861 1654.11797169 662.39411804 1663.57335421 668.86328125 1673.05224609 C675.59390397 1682.90875976 682.38439707 1692.72259775 689.20703125 1702.515625 C695.80969311 1711.99371495 702.35181106 1721.51136423 708.86328125 1731.05224609 C715.59390397 1740.90875976 722.38439707 1750.72259775 729.20703125 1760.515625 C735.80969311 1769.99371495 742.35181106 1779.51136423 748.86328125 1789.05224609 C755.59390397 1798.90875976 762.38439707 1808.72259775 769.20703125 1818.515625 C775.80969311 1827.99371495 782.35181106 1837.51136423 788.86328125 1847.05224609 C795.59390397 1856.90875976 802.38439707 1866.72259775 809.20703125 1876.515625 C815.80969311 1885.99371495 822.35181106 1895.51136423 828.86328125 1905.05224609 C836.27834092 1915.91106851 843.77168448 1926.71422874 851.28833008 1937.50292969 C856.02724608 1944.31102869 860.72433701 1951.14623939 865.39794922 1957.99926758 C869.67288569 1964.25941787 873.99709015 1970.48441099 878.33203125 1976.703125 C884.89417861 1986.11797169 891.39411804 1995.57335421 897.86328125 2005.05224609 C906.02787115 2017.00870172 914.28536939 2028.89977823 922.55859375 2040.78125 C926.82826088 2046.91369545 931.08418491 2053.05554738 935.33203125 2059.203125 C934.67203125 2059.533125 934.01203125 2059.863125 933.33203125 2060.203125 C927.68411102 2055.68041905 922.15561019 2051.10419768 916.83203125 2046.203125 C913.25410662 2042.90980801 909.61663459 2039.75661179 905.83203125 2036.703125 C901.07607706 2032.86593469 896.57698324 2028.80927399 892.08203125 2024.671875 C889.39465491 2022.25934396 886.64237681 2019.9705629 883.83203125 2017.703125 C879.07463457 2013.86477086 874.57419207 2009.80690141 870.078125 2005.66796875 C867.41327959 2003.27605203 864.683713 2001.01057616 861.89453125 1998.765625 C857.35966964 1995.10806236 853.07666942 1991.25695473 848.81494141 1987.29150391 C844.70423849 1983.48913693 840.40927541 1979.96041908 836.046875 1976.44921875 C833.2252963 1974.1148191 830.52612413 1971.68321902 827.83203125 1969.203125 C824.25410662 1965.90980801 820.61663459 1962.75661179 816.83203125 1959.703125 C812.07607706 1955.86593469 807.57698324 1951.80927399 803.08203125 1947.671875 C800.39465491 1945.25934396 797.64237681 1942.9705629 794.83203125 1940.703125 C790.07607706 1936.86593469 785.57698324 1932.80927399 781.08203125 1928.671875 C778.39465491 1926.25934396 775.64237681 1923.9705629 772.83203125 1921.703125 C768.07607706 1917.86593469 763.57698324 1913.80927399 759.08203125 1909.671875 C756.39465491 1907.25934396 753.64237681 1904.9705629 750.83203125 1902.703125 C746.07463457 1898.86477086 741.57419207 1894.80690141 737.078125 1890.66796875 C734.41327959 1888.27605203 731.683713 1886.01057616 728.89453125 1883.765625 C724.35966964 1880.10806236 720.07666942 1876.25695473 715.81494141 1872.29150391 C711.70423849 1868.48913693 707.40927541 1864.96041908 703.046875 1861.44921875 C700.2252963 1859.1148191 697.52612413 1856.68321902 694.83203125 1854.203125 C691.25410662 1850.90980801 687.61663459 1847.75661179 683.83203125 1844.703125 C679.07607706 1840.86593469 674.57698324 1836.80927399 670.08203125 1832.671875 C667.39465491 1830.25934396 664.64237681 1827.9705629 661.83203125 1825.703125 C657.07607706 1821.86593469 652.57698324 1817.80927399 648.08203125 1813.671875 C645.39465491 1811.25934396 642.64237681 1808.9705629 639.83203125 1806.703125 C635.07607706 1802.86593469 630.57698324 1798.80927399 626.08203125 1794.671875 C623.39465491 1792.25934396 620.64237681 1789.9705629 617.83203125 1787.703125 C613.07463457 1783.86477086 608.57419207 1779.80690141 604.078125 1775.66796875 C601.41327959 1773.27605203 598.683713 1771.01057616 595.89453125 1768.765625 C591.35966964 1765.10806236 587.07666942 1761.25695473 582.81494141 1757.29150391 C578.70423849 1753.48913693 574.40927541 1749.96041908 570.046875 1746.44921875 C567.2252963 1744.1148191 564.52612413 1741.68321902 561.83203125 1739.203125 C558.25410662 1735.90980801 554.61663459 1732.75661179 550.83203125 1729.703125 C546.07607706 1725.86593469 541.57698324 1721.80927399 537.08203125 1717.671875 C534.39465491 1715.25934396 531.64237681 1712.9705629 528.83203125 1710.703125 C524.07607706 1706.86593469 519.57698324 1702.80927399 515.08203125 1698.671875 C512.39465491 1696.25934396 509.64237681 1693.9705629 506.83203125 1691.703125 C502.07463457 1687.86477086 497.57419207 1683.80690141 493.078125 1679.66796875 C490.41327959 1677.27605203 487.683713 1675.01057616 484.89453125 1672.765625 C480.35966964 1669.10806236 476.07666942 1665.25695473 471.81494141 1661.29150391 C467.70423849 1657.48913693 463.40927541 1653.96041908 459.046875 1650.44921875 C456.2252963 1648.1148191 453.52612413 1645.68321902 450.83203125 1643.203125 C447.25410662 1639.90980801 443.61663459 1636.75661179 439.83203125 1633.703125 C435.07607706 1629.86593469 430.57698324 1625.80927399 426.08203125 1621.671875 C423.39465491 1619.25934396 420.64237681 1616.9705629 417.83203125 1614.703125 C413.07607706 1610.86593469 408.57698324 1606.80927399 404.08203125 1602.671875 C401.39465491 1600.25934396 398.64237681 1597.9705629 395.83203125 1595.703125 C391.07607706 1591.86593469 386.57698324 1587.80927399 382.08203125 1583.671875 C379.39465491 1581.25934396 376.64237681 1578.9705629 373.83203125 1576.703125 C369.07463457 1572.86477086 364.57419207 1568.80690141 360.078125 1564.66796875 C357.41327959 1562.27605203 354.683713 1560.01057616 351.89453125 1557.765625 C347.35966964 1554.10806236 343.07666942 1550.25695473 338.81494141 1546.29150391 C334.70423849 1542.48913693 330.40927541 1538.96041908 326.046875 1535.44921875 C323.2252963 1533.1148191 320.52612413 1530.68321902 317.83203125 1528.203125 C314.25410662 1524.90980801 310.61663459 1521.75661179 306.83203125 1518.703125 C302.07607706 1514.86593469 297.57698324 1510.80927399 293.08203125 1506.671875 C290.39465491 1504.25934396 287.64237681 1501.9705629 284.83203125 1499.703125 C280.07607706 1495.86593469 275.57698324 1491.80927399 271.08203125 1487.671875 C268.39465491 1485.25934396 265.64237681 1482.9705629 262.83203125 1480.703125 C258.07607706 1476.86593469 253.57698324 1472.80927399 249.08203125 1468.671875 C246.39465491 1466.25934396 243.64237681 1463.9705629 240.83203125 1461.703125 C236.07463457 1457.86477086 231.57419207 1453.80690141 227.078125 1449.66796875 C224.41327959 1447.27605203 221.683713 1445.01057616 218.89453125 1442.765625 C214.36551552 1439.11277732 210.08440695 1435.26997749 205.83251953 1431.3046875 C201.58946643 1427.37311464 197.1593945 1423.75031933 192.609375 1420.17578125 C190.33203125 1418.203125 190.33203125 1418.203125 187.33203125 1414.203125 C251.02203125 1414.203125 314.71203125 1414.203125 380.33203125 1414.203125 C375.05203125 1404.633125 369.77203125 1395.063125 364.33203125 1385.203125 C361.69203125 1380.418125 359.05203125 1375.633125 356.33203125 1370.703125 C355.01332031 1368.31320312 353.69460938 1365.92328125 352.3359375 1363.4609375 C349.99183876 1359.2125568 347.64858082 1354.96371407 345.30636597 1350.71429443 C337.88617974 1337.2521264 330.44808191 1323.80034226 322.97631836 1310.36669922 C318.07198217 1301.5451924 313.19361337 1292.70959155 308.32177734 1283.87011719 C303.50880887 1275.13831662 298.67837266 1266.41646557 293.83203125 1257.703125 C288.66967508 1248.42051794 283.5236749 1239.12910926 278.39453125 1229.828125 C278.06309113 1229.22711975 277.731651 1228.6261145 277.39016724 1228.00689697 C274.69994663 1223.12828396 272.01078026 1218.24909003 269.32165527 1213.36987305 C266.97143889 1209.10568588 264.62080711 1204.84172807 262.26953125 1200.578125 C261.93801056 1199.97695862 261.60648987 1199.37579224 261.2649231 1198.75640869 C255.85541255 1188.94867719 250.42063799 1179.15515759 244.97631836 1169.36669922 C240.07198217 1160.5451924 235.19361337 1151.70959155 230.32177734 1142.87011719 C225.50880887 1134.13831662 220.67837266 1125.41646557 215.83203125 1116.703125 C210.66967508 1107.42051794 205.5236749 1098.12910926 200.39453125 1088.828125 C200.06309113 1088.22711975 199.731651 1087.6261145 199.39016724 1087.00689697 C196.69994663 1082.12828396 194.01078026 1077.24909003 191.32165527 1072.36987305 C188.97143889 1068.10568588 186.62080711 1063.84172807 184.26953125 1059.578125 C183.93801056 1058.97695862 183.60648987 1058.37579224 183.2649231 1057.75640869 C177.86348704 1047.96331669 172.43729935 1038.18414948 167.00048828 1028.41064453 C161.5119379 1018.53939149 156.05560828 1008.65051239 150.609375 998.75585938 C149.97773438 997.60923828 149.34609375 996.46261719 148.6953125 995.28125 C148.14141846 994.27481445 147.58752441 993.26837891 147.0168457 992.23144531 C145.7664351 989.98393146 144.50413335 987.74594367 143.22673035 985.51385498 C142.60147964 984.42131409 141.97622894 983.32877319 141.33203125 982.203125 C141.33178705 983.01815854 141.33154285 983.83319208 141.33129124 984.67292361 C141.30456751 1073.3923264 141.27291292 1162.11172693 141.21539307 1250.83111572 C141.21452689 1252.16940496 141.21366072 1253.50769419 141.21279455 1254.84598343 C141.19459544 1282.93740942 141.17557491 1311.02883481 141.15560555 1339.1202596 C141.14557507 1353.2316427 141.13570242 1367.34302591 141.125979 1381.45440923 C141.12451135 1383.5830499 141.1230392 1385.71169057 141.12156685 1387.84033125 C141.0989362 1420.61598515 141.07968923 1453.39163675 141.07025146 1486.16729736 C141.0700485 1486.87193156 141.06984554 1487.57656575 141.06963642 1488.3025525 C141.06638462 1499.66324501 141.06341697 1511.02393759 141.06048702 1522.38463019 C141.05204291 1555.10941789 141.0414956 1587.83419881 141.01704788 1620.55897903 C141.01654609 1621.23203018 141.0160443 1621.90508133 141.0155273 1622.59852796 C141.00496998 1636.71062468 140.9935116 1650.8227205 140.98095511 1664.93481559 C140.97508088 1671.5436535 140.96935606 1678.15249153 140.96372223 1684.76132965 C140.96205204 1686.71243294 140.96205204 1686.71243294 140.96034811 1688.70295246 C140.94279692 1709.6553062 140.93903225 1730.60764091 140.94040204 1751.56000101 C140.94148514 1772.61565047 140.92809423 1793.67125109 140.89986697 1814.72688201 C140.8835308 1827.24192985 140.87835423 1839.75686728 140.8890595 1852.27192182 C140.89511557 1860.6294339 140.88672168 1868.98685046 140.86653895 1877.34434017 C140.85544994 1882.10798029 140.85068108 1886.87139571 140.8635188 1891.63503656 C140.87508182 1895.97160518 140.86816991 1900.30774282 140.84673055 1904.64427028 C140.84223667 1906.20057639 140.84438078 1907.75692007 140.85411049 1909.31320225 C140.93547319 1923.37482798 138.32765987 1934.17002494 129.33203125 1945.203125 C128.831875 1945.83992188 128.33171875 1946.47671875 127.81640625 1947.1328125 C120.74412351 1955.16949743 108.63975399 1960.52411238 98.05924189 1961.38888621 C95.52420158 1961.46516119 92.99621429 1961.4793766 90.46003723 1961.47055054 C89.0118398 1961.47734721 89.0118398 1961.47734721 87.53438586 1961.48428118 C84.31429713 1961.49689424 81.09437821 1961.49530679 77.87426758 1961.49365234 C75.55923242 1961.49963957 73.24419925 1961.50644556 70.9291687 1961.51400757 C64.65003349 1961.5316562 58.37095282 1961.53636251 52.09179521 1961.53763914 C48.16521722 1961.53906208 44.23865303 1961.54333443 40.31207848 1961.54863358 C27.31019394 1961.56617696 14.30834802 1961.57547429 1.30645219 1961.57397263 C0.60647287 1961.57389272 -0.09350645 1961.5738128 -0.81469727 1961.57373047 C-1.51553892 1961.57364871 -2.21638057 1961.57356695 -2.93845985 1961.57348271 C-14.28767973 1961.57267041 -25.63676671 1961.59179672 -36.98594817 1961.6200072 C-48.66043176 1961.64879548 -60.33485067 1961.66254419 -72.00937063 1961.66081965 C-78.5551631 1961.66031072 -85.10080516 1961.66595609 -91.64656639 1961.68717575 C-97.80672976 1961.7066005 -103.96659987 1961.70665337 -110.12677383 1961.69214249 C-112.38051725 1961.69005848 -114.63427923 1961.69473073 -116.88799095 1961.7068634 C-134.85631228 1961.79728579 -150.08738057 1960.30042201 -163.91796875 1947.515625 C-173.11005479 1937.76644283 -177.15278305 1925.44842062 -177.04401624 1912.25623089 C-177.04822319 1911.30069483 -177.05243014 1910.34515877 -177.05676458 1909.36066707 C-177.06719078 1906.16378969 -177.05630126 1902.96734909 -177.04549217 1899.77047825 C-177.04862236 1897.44348356 -177.05306668 1895.11649034 -177.05870527 1892.78950039 C-177.06918464 1887.04879884 -177.06570382 1881.30822321 -177.05641007 1875.56752241 C-177.04599909 1868.64152977 -177.05314835 1861.71558228 -177.06080256 1854.78958999 C-177.07459857 1841.84599637 -177.07415448 1828.90243812 -177.06595993 1815.95884132 C-177.05770607 1802.84163954 -177.05596523 1789.72446103 -177.06217194 1776.60725784 C-177.06275321 1775.36449693 -177.06275321 1775.36449693 -177.06334623 1774.09662973 C-177.06494605 1770.72222876 -177.06659217 1767.34782781 -177.06829706 1763.97342688 C-177.084167 1732.54058461 -177.08524017 1701.10775795 -177.07685471 1669.67491341 C-177.07660632 1668.74339246 -177.07635793 1667.81187151 -177.07610202 1666.85212265 C-177.07585323 1665.91910886 -177.07560444 1664.98609507 -177.07534811 1664.02480813 C-177.06778073 1635.60802793 -177.06582337 1607.19125418 -177.06941605 1578.77447319 C-177.06964848 1576.87207602 -177.06987995 1574.96967885 -177.07011046 1573.06728167 C-177.07104185 1565.42237308 -177.07199785 1557.77746449 -177.07298975 1550.1325559 C-177.07574095 1528.76055052 -177.07745263 1507.38854511 -177.07834816 1486.01653957 C-177.0783891 1485.04324994 -177.07843003 1484.0699603 -177.07847221 1483.06717704 C-177.07970028 1452.04783325 -177.07631827 1421.02849169 -177.06979942 1390.0091486 C-177.06958868 1389.00289442 -177.06937793 1387.99664024 -177.0691608 1386.9598935 C-177.06572591 1370.61874389 -177.06206754 1354.27759433 -177.05839027 1337.93644478 C-177.04382627 1273.14732089 -177.04449264 1208.3582156 -177.05908203 1143.5690918 C-177.06274564 1127.24692569 -177.06637881 1110.92475958 -177.06979942 1094.60259342 C-177.07001077 1093.59756416 -177.07022211 1092.59253489 -177.07043986 1091.55705019 C-177.07690964 1060.57831605 -177.07965099 1029.59958345 -177.07834816 998.62084866 C-177.07830741 997.64815132 -177.07826665 996.67545398 -177.07822467 995.67328096 C-177.07728717 974.31953635 -177.07538613 952.9657919 -177.07261665 931.61204745 C-177.07162923 923.97111051 -177.07068999 916.33017357 -177.06976452 908.68923663 C-177.06953235 906.78837245 -177.06929616 904.88750828 -177.06905593 902.9866441 C-177.06547629 874.58393573 -177.06852235 846.18123462 -177.07610202 817.77852716 C-177.07635041 816.84775137 -177.07659879 815.91697558 -177.07685471 814.95799446 C-177.07710275 814.02893602 -177.0773508 813.09987758 -177.07760636 812.14266585 C-177.08588532 780.79091456 -177.08282869 749.43918197 -177.06701247 718.08743335 C-177.06535545 714.71882282 -177.06374533 711.35021228 -177.06217194 707.98160172 C-177.06178132 707.15489599 -177.0613907 706.32819027 -177.06098824 705.47643286 C-177.05507703 692.39980837 -177.05918443 679.3232072 -177.06747895 666.24658481 C-177.07542587 653.38013504 -177.07260897 640.5137245 -177.05843669 627.64727969 C-177.05114776 620.76803692 -177.04846333 613.88887427 -177.05965464 607.00963438 C-177.06937764 600.74539498 -177.06518212 594.48132153 -177.05011266 588.21709411 C-177.04710319 585.97081115 -177.04905767 583.7245143 -177.05673047 581.47824243 C-177.1101369 564.64186578 -176.08395944 548.17289618 -170.91796875 532.015625 C-170.66120361 531.1915918 -170.40443848 530.36755859 -170.13989258 529.51855469 C-157.0409617 488.68928564 -128.80444006 455.64543473 -91.0859375 435.40234375 C-53.16351869 415.9727972 -8.38966511 413.20014175 32.00976562 426.05517578 C71.16829449 439.2244771 104.7550201 466.98844958 123.51953125 504.015625 C133.15986212 523.80126789 140.56668966 545.41066763 140.4120369 567.65525818 C140.40858759 568.36374722 140.40513828 569.07223625 140.40158445 569.80219465 C140.3889041 572.16432939 140.36885716 574.52634383 140.34893799 576.88842773 C140.33846089 578.60396787 140.32849736 580.31951121 140.31900191 582.03505707 C140.29751362 585.75905705 140.27293048 589.48301908 140.24598885 593.20698357 C140.17933509 602.46959355 140.12963321 611.73230565 140.07770616 620.99500763 C140.05889852 624.32058507 140.03947561 627.64615854 140.02000189 630.97173214 C139.92664823 647.16078996 139.86506282 663.34979631 139.82220459 679.5390625 C139.81750799 681.2963991 139.81750799 681.2963991 139.81271651 683.08923745 C139.78396448 693.96676221 139.75758227 704.84429191 139.73370409 715.72182846 C139.71730871 723.17767369 139.69981289 730.63351556 139.68115234 738.08935547 C139.67652724 739.94690354 139.67652724 739.94690354 139.67180869 741.84197783 C139.61973131 761.90003549 139.49642361 781.95707255 139.34776345 802.01461947 C139.19672837 822.62194291 139.12573228 843.22844809 139.12781024 863.83632946 C139.12651428 876.53968121 139.06277854 889.23954539 138.91823438 901.94208831 C138.82501525 910.65393538 138.80944966 919.36378978 138.85418531 928.07601148 C138.87768492 933.09900191 138.86762397 938.1158293 138.76479912 943.13795662 C137.42642216 964.4677039 137.42642216 964.4677039 145.83367157 982.96411133 C150.09795135 986.59304939 154.62347315 989.29078484 159.62704039 991.77268982 C164.09488361 994.1353448 167.97087872 997.24374479 171.95703125 1000.328125 C173.52166297 1001.48334529 175.08900941 1002.63490627 176.66015625 1003.78125 C177.43166016 1004.34650391 178.20316406 1004.91175781 178.99804688 1005.49414062 C179.76826172 1006.05810547 180.53847656 1006.62207031 181.33203125 1007.203125 C192.24628209 1015.19473126 203.07870358 1023.27617234 213.81860352 1031.50097656 C219.4194822 1035.77860242 225.06401697 1039.97622843 230.84082031 1044.01367188 C234.59109015 1046.63588617 238.14664912 1049.41918688 241.5859375 1052.4375 C243.36301858 1053.42684434 243.36301858 1053.42684434 245.49609375 1052.6796875 C249.5085231 1050.59057139 253.32630178 1048.25163051 257.14453125 1045.828125 C258.40160889 1045.03172607 258.40160889 1045.03172607 259.68408203 1044.21923828 C267.24140697 1039.36922816 274.42137065 1034.10952535 281.51367188 1028.60839844 C283.23986972 1027.27434973 284.97812042 1025.95837325 286.72265625 1024.6484375 C294.88534459 1018.49619132 302.66211068 1011.95504191 310.33203125 1005.203125 C311.68941406 1004.01589844 311.68941406 1004.01589844 313.07421875 1002.8046875 C319.74895773 996.82644303 326.12352288 990.53904524 332.48196411 984.22842407 C333.4896128 983.22881529 334.49873726 982.23069145 335.50949097 981.23422241 C342.25437826 974.57460123 348.41518992 967.61772064 354.33203125 960.203125 C355.25537943 959.11327141 356.18499125 958.02864174 357.125 956.953125 C375.63981892 935.68977668 390.79921932 911.87300921 404.33203125 887.203125 C405.07235596 885.86024414 405.07235596 885.86024414 405.82763672 884.49023438 C444.89402953 813.14607673 462.09015305 729.92879806 440.92248535 558.22259521 C434.81134659 537.32128776 427.3416665 517.03587748 418.33203125 497.203125 C417.88359863 496.21135254 417.43516602 495.21958008 416.97314453 494.19775391 C392.63019902 440.78703478 354.12657592 384.30018538 306.9140625 348.25 C304.55244446 346.37785499 302.33445021 344.42423506 300.09765625 342.40625 C295.65281292 338.43311366 291.04608229 334.76753251 286.26953125 331.203125 C285.42028076 330.56866455 284.57103027 329.9342041 283.69604492 329.28051758 C260.78515041 312.34853992 236.71628072 298.0481669 211.33203125 285.203125 C210.53603516 284.79707031 209.74003906 284.39101562 208.91992188 283.97265625 C168.5445447 263.52324309 123.90427563 251.84540572 79.33203125 245.203125 C78.24792969 245.03651367 77.16382812 244.86990234 76.046875 244.69824219 C39.2051318 239.29284669 -0.86716841 239.70076332 -37.66796875 245.203125 C-38.83440918 245.36409668 -40.00084961 245.52506836 -41.20263672 245.69091797 C-82.8354838 251.49043541 -123.56472231 263.46044683 -161.66796875 281.203125 C-163.42036147 281.99916357 -165.17296618 282.79473561 -166.92578125 283.58984375 C-203.58901369 300.4205461 -237.54394768 323.42621738 -267.66796875 350.203125 C-268.52003906 350.9559375 -269.37210938 351.70875 -270.25 352.484375 C-272.74040812 354.7052236 -275.2068641 356.94984696 -277.66796875 359.203125 C-278.2201709 359.70489258 -278.77237305 360.20666016 -279.34130859 360.72363281 C-288.67049224 369.18293322 -288.67049224 369.18293322 -297.171875 378.45703125 C-298.71032266 380.25255633 -300.34090602 381.87531512 -302.04296875 383.515625 C-306.16123289 387.57922192 -309.72576582 392.04621524 -313.33886719 396.55761719 C-314.76998391 398.32942591 -316.22105652 400.08346746 -317.67578125 401.8359375 C-376.57797852 473.02928172 -413.45112868 566.22916345 -414.54296875 720.140625 C-409.45022676 768.69521837 -396.75128672 815.71784509 -376.66796875 860.203125 C-375.99842839 861.72383969 -375.32913538 863.24466333 -374.66015625 864.765625 C-363.52948011 889.62384587 -348.71445697 913.24450071 -332.66796875 935.203125 C-331.92329346 936.22817139 -331.92329346 936.22817139 -331.16357422 937.27392578 C-321.66631904 950.30907087 -311.33260726 962.47188531 -300.36328125 974.28515625 C-298.59070944 976.20415791 -296.83487137 978.13877692 -295.09765625 980.08984375 C-269.50553185 1008.69954699 -238.1533372 1031.90278393 -205.59643555 1051.95141602 C-204.9600415 1052.36447998 -204.32364746 1052.77754395 -203.66796875 1053.203125 C-202.97834557 1053.62323862 -202.28872239 1054.04335225 -201.57820153 1054.47619659 C-199.66796875 1056.203125 -199.66796875 1056.203125 -199.17117476 1058.42879695 C-199.17269365 1059.30557119 -199.17421253 1060.18234543 -199.17577744 1061.08568859 C-199.16781324 1062.09836306 -199.15984905 1063.11103752 -199.15164351 1064.1543991 C-199.16329488 1065.27014463 -199.17494625 1066.38589016 -199.18695068 1067.53544617 C-199.18353298 1068.71815607 -199.18011528 1069.90086598 -199.17659402 1071.11941558 C-199.17113278 1074.40804589 -199.18367638 1077.69572978 -199.20370626 1080.9842459 C-199.22094612 1084.52819363 -199.21513703 1088.07211101 -199.21209717 1091.61608887 C-199.2099976 1097.75810899 -199.22257007 1103.89995943 -199.24504852 1110.04193687 C-199.27752755 1118.92222561 -199.28797133 1127.80243211 -199.29300049 1136.68277381 C-199.30175959 1151.08975056 -199.32839182 1165.49663684 -199.36621094 1179.90356445 C-199.40291513 1193.90030463 -199.43123467 1207.89702025 -199.44824219 1221.89379883 C-199.44929308 1222.75625238 -199.45034398 1223.61870593 -199.45142671 1224.50729444 C-199.45664678 1228.83387897 -199.46170164 1233.16046368 -199.46667433 1237.48704851 C-199.50815551 1273.39247123 -199.57862065 1309.29779108 -199.66796875 1345.203125 C-204.47393053 1344.56503208 -208.67632423 1343.6615453 -213.2265625 1341.97265625 C-213.83975342 1341.74599777 -214.45294434 1341.51933929 -215.0847168 1341.28581238 C-217.09516348 1340.53813976 -219.1006075 1339.77813933 -221.10546875 1339.015625 C-222.15083298 1338.62105103 -222.15083298 1338.62105103 -223.21731567 1338.21850586 C-255.69348748 1325.93154399 -287.49152025 1311.38417441 -317.66796875 1294.203125 C-318.67456543 1293.63174805 -319.68116211 1293.06037109 -320.71826172 1292.47167969 C-347.06993935 1277.41938674 -372.58750225 1260.6814232 -396.66796875 1242.203125 C-397.42561523 1241.6265918 -398.18326172 1241.05005859 -398.96386719 1240.45605469 C-408.03696846 1233.54482977 -416.88420393 1226.44046356 -425.484375 1218.94921875 C-428.44511679 1216.37547861 -431.48313739 1213.90854523 -434.54296875 1211.453125 C-438.45315697 1208.28146428 -442.05846347 1204.97192447 -445.5234375 1201.3203125 C-447.40791746 1199.45986052 -449.33817921 1197.7451822 -451.34472656 1196.01977539 C-455.38066559 1192.49873501 -459.20443772 1188.81191323 -462.984375 1185.01953125 C-463.6445311 1184.36033188 -464.30468719 1183.70113251 -464.98484802 1183.0219574 C-466.36832381 1181.63915665 -467.75055958 1180.25511424 -469.1315918 1178.86987305 C-471.22528544 1176.77082157 -473.32426749 1174.6771656 -475.42382812 1172.58398438 C-476.77766446 1171.22948714 -478.1311905 1169.87467969 -479.484375 1168.51953125 C-480.10123672 1167.90469376 -480.71809845 1167.28985626 -481.35365295 1166.65638733 C-485.10412432 1162.88602327 -488.66707325 1158.99728289 -492.13978577 1154.96942139 C-494.22272095 1152.56193424 -496.3828953 1150.22888633 -498.54296875 1147.890625 C-503.46415222 1142.48842359 -508.08298528 1136.89082602 -512.66796875 1131.203125 C-513.67730969 1129.97307484 -514.68779473 1128.7439629 -515.69921875 1127.515625 C-539.68844853 1098.32282246 -560.87894017 1066.97291623 -579.66796875 1034.203125 C-580.09883789 1033.45321289 -580.52970703 1032.70330078 -580.97363281 1031.93066406 C-583.94787666 1026.72868096 -586.83094258 1021.48107942 -589.66796875 1016.203125 C-590.1897168 1015.23342773 -590.71146484 1014.26373047 -591.24902344 1013.26464844 C-605.78724423 986.09252083 -618.08032278 958.12446532 -628.66796875 929.203125 C-628.91911438 928.51734375 -629.17026001 927.8315625 -629.42901611 927.125 C-656.68038634 852.4358987 -669.91746675 773.83540054 -650.66796875 524.203125 C-650.51026001 523.55166504 -650.35255127 522.90020508 -650.19006348 522.22900391 C-639.67599145 479.02802749 -624.2898683 437.52947512 -605.66796875 397.203125 C-605.20680664 396.20104004 -604.74564453 395.19895508 -604.27050781 394.16650391 C-597.64975669 379.85130285 -590.46342682 365.91332675 -582.66796875 352.203125 C-582.0951416 351.19362793 -581.52231445 350.18413086 -580.93212891 349.14404297 C-565.8885961 322.80871494 -549.18611394 297.23334008 -530.66796875 273.203125 C-530.17264648 272.55907715 -529.67732422 271.9150293 -529.16699219 271.25146484 C-526.04143538 267.20230704 -522.87235092 263.1901208 -519.66796875 259.203125 C-518.92289063 258.275 -518.1778125 257.346875 -517.41015625 256.390625 C-508.36040562 245.23250953 -498.96972838 234.39784112 -489.19360352 223.87231445 C-488.05969605 222.63171191 -486.93995405 221.37813182 -485.82788086 220.11791992 C-479.6253335 213.10986555 -473.09176094 206.47379675 -466.46557617 199.87036133 C-464.60153631 198.01170392 -462.74293363 196.14772886 -460.88476562 194.28320312 C-454.97967209 188.37480908 -449.03973581 182.61188527 -442.66796875 177.203125 C-440.89226654 175.58344683 -439.12088568 173.95900782 -437.35546875 172.328125 C-432.94443702 168.30931907 -428.43061517 164.47447176 -423.78515625 160.73046875 C-421.45558933 158.85264584 -419.15539478 156.94288383 -416.86328125 155.01953125 C-406.44299715 146.29787081 -395.71115852 138.11888343 -384.66796875 130.203125 C-383.86488281 129.625625 -383.06179688 129.048125 -382.234375 128.453125 C-369.34880673 119.21674966 -356.13624413 110.5641397 -342.66796875 102.203125 C-341.66636719 101.57978271 -341.66636719 101.57978271 -340.64453125 100.94384766 C-336.36063819 98.29054587 -332.02875069 95.72778823 -327.66796875 93.203125 C-326.83652344 92.71972656 -326.00507812 92.23632812 -325.1484375 91.73828125 C-255.35340077 51.36180314 -179.25657418 23.73348787 0 0 Z " fill="#0F78BC" transform="translate(2117.66796875,1219.796875)"/>
<path d="M0 0 C28.39162153 25.75739138 47.27040652 62.29997054 50.87353516 100.59790039 C51.00791352 103.83846257 51.00986576 107.07426206 51.00233632 110.31727624 C51.00499884 111.75013378 51.00499884 111.75013378 51.00771514 113.21193794 C51.01245422 116.41971939 51.01008234 119.62745586 51.00775623 122.83523941 C51.00970944 125.16543064 51.01209839 127.49562154 51.0148842 129.82581192 C51.02061762 135.58217006 51.02169238 141.3385161 51.02083322 147.09487671 C51.02005836 154.03805649 51.02508258 160.9812291 51.0302643 167.92440655 C51.0397723 180.90051461 51.04448267 193.87662051 51.04657364 206.8527317 C51.04870224 220.00462569 51.0529624 233.15651634 51.05981636 246.30840874 C51.06024697 247.13878187 51.06067759 247.96915501 51.06112125 248.82469097 C51.0628796 252.20662246 51.06464925 255.58855394 51.06643427 258.97048541 C51.08803048 299.96674333 51.09891188 340.96300191 51.10791051 381.95926422 C51.11084443 395.25152913 51.11421431 408.54379389 51.11787772 421.83605862 C51.11826516 423.24263217 51.11826516 423.24263217 51.11866042 424.67762135 C51.11970664 428.4712813 51.12075507 432.26494124 51.12180624 436.05860119 C51.1397696 500.94524361 51.15514938 565.8318863 51.16256528 630.71853086 C51.16314925 635.81489241 51.16374651 640.91125395 51.16434289 646.00761549 C51.16446101 647.01857395 51.16457913 648.02953241 51.16470083 649.07112598 C51.16589822 659.31359776 51.16710698 669.55606954 51.16833336 679.79854131 C51.1685786 681.85219046 51.16882245 683.90583961 51.16906493 685.95948876 C51.17685657 751.93128634 51.19924504 817.90306614 51.23174136 883.87485594 C51.25508356 931.27854782 51.27663693 978.68223616 51.28374767 1026.08593369 C51.28389469 1027.06057188 51.28404171 1028.03521007 51.28419319 1029.03938275 C51.28737783 1050.43389729 51.28942885 1071.82841181 51.29042074 1093.22292656 C51.29083548 1101.83088649 51.29139038 1110.43884641 51.29198265 1119.04680634 C51.29204332 1119.98889685 51.29210399 1120.93098736 51.2921665 1121.90162607 C51.29418323 1152.25961775 51.308427 1182.61758846 51.32892765 1212.97557282 C51.34949968 1243.54756932 51.35740729 1274.11954156 51.34784989 1304.69154429 C51.34653141 1308.91495876 51.34535337 1313.13837326 51.34425926 1317.3617878 C51.34403941 1318.1897005 51.34381957 1319.0176132 51.34359306 1319.87061416 C51.34047732 1332.98608995 51.3508107 1346.10151936 51.36673481 1359.21698439 C51.38211028 1372.10986332 51.38324702 1385.00267803 51.36918658 1397.89555917 C51.36205473 1404.79386146 51.36119473 1411.69201825 51.37874667 1418.59030607 C51.3940946 1424.86368655 51.39108866 1431.13677797 51.37333639 1437.41014966 C51.37018204 1439.66758387 51.37375691 1441.9250399 51.38482813 1444.18244917 C51.45871476 1460.29523093 50.42357795 1472.65831799 39.87353516 1485.59790039 C39.37337891 1486.23469727 38.87322266 1486.87149414 38.35791016 1487.52758789 C31.28562742 1495.56427282 19.1812579 1500.91888777 8.6007458 1501.7836616 C6.06570549 1501.85993658 3.5377182 1501.87415199 1.00154114 1501.86532593 C-0.44665629 1501.8721226 -0.44665629 1501.8721226 -1.92411023 1501.87905657 C-5.14419896 1501.89166963 -8.36411789 1501.89008218 -11.58422852 1501.88842773 C-13.89926368 1501.89441496 -16.21429684 1501.90122095 -18.52932739 1501.90878296 C-24.8084626 1501.92643159 -31.08754327 1501.9311379 -37.36670089 1501.93241453 C-41.29327888 1501.93383747 -45.21984306 1501.93810982 -49.14641762 1501.94340897 C-62.14830216 1501.96095235 -75.15014807 1501.97024968 -88.1520439 1501.96874802 C-89.20201288 1501.96862815 -89.20201288 1501.96862815 -90.27319336 1501.96850586 C-91.32445584 1501.96838322 -91.32445584 1501.96838322 -92.39695594 1501.9682581 C-103.74617582 1501.9674458 -115.0952628 1501.98657211 -126.44444426 1502.01478259 C-138.11892785 1502.04357087 -149.79334676 1502.05731959 -161.46786672 1502.05559504 C-168.0136592 1502.05508611 -174.55930125 1502.06073148 -181.10506248 1502.08195114 C-187.26522585 1502.10137589 -193.42509596 1502.10142876 -199.58526993 1502.08691788 C-201.83901335 1502.08483387 -204.09277532 1502.08950613 -206.34648705 1502.10163879 C-224.31480837 1502.19206118 -239.54587667 1500.6951974 -253.37646484 1487.91040039 C-262.56855089 1478.16121822 -266.61127914 1465.84319601 -266.50251234 1452.65100628 C-266.50882276 1451.21770219 -266.50882276 1451.21770219 -266.51526067 1449.75544246 C-266.52568688 1446.55856508 -266.51479735 1443.36212448 -266.50398827 1440.16525364 C-266.50711845 1437.83825896 -266.51156278 1435.51126573 -266.51720136 1433.18427578 C-266.52768074 1427.44357423 -266.52419991 1421.7029986 -266.51490617 1415.9622978 C-266.50449518 1409.03630516 -266.51164444 1402.11035767 -266.51929866 1395.18436538 C-266.53309467 1382.24077176 -266.53265057 1369.29721351 -266.52445602 1356.35361671 C-266.51620216 1343.23641493 -266.51446132 1330.11923642 -266.52066803 1317.00203323 C-266.52105555 1316.17352596 -266.52144307 1315.34501868 -266.52184233 1314.49140512 C-266.52344214 1311.11700415 -266.52508827 1307.7426032 -266.52679315 1304.36820227 C-266.5426631 1272.93536 -266.54373626 1241.50253334 -266.5353508 1210.0696888 C-266.53510241 1209.13816785 -266.53485403 1208.2066469 -266.53459811 1207.24689804 C-266.53434932 1206.31388425 -266.53410054 1205.38087046 -266.53384421 1204.41958352 C-266.52627682 1176.00280332 -266.52431946 1147.58602958 -266.52791214 1119.16924858 C-266.52814458 1117.26685141 -266.52837605 1115.36445424 -266.52860655 1113.46205706 C-266.52953795 1105.81714847 -266.53049395 1098.17223988 -266.53148584 1090.52733129 C-266.53423705 1069.15532591 -266.53594872 1047.7833205 -266.53684425 1026.41131496 C-266.53688519 1025.43802533 -266.53692613 1024.4647357 -266.53696831 1023.46195244 C-266.53819638 992.44260864 -266.53481437 961.42326708 -266.52829552 930.40392399 C-266.52808477 929.39766981 -266.52787402 928.39141563 -266.52765689 927.35466889 C-266.524222 911.01351928 -266.52056363 894.67236972 -266.51688637 878.33122017 C-266.50232236 813.54209628 -266.50298873 748.75299099 -266.51757812 683.96386719 C-266.52124173 667.64170108 -266.5248749 651.31953497 -266.52829552 634.99736881 C-266.52850686 633.99233955 -266.52871821 632.98731028 -266.52893595 631.95182558 C-266.53540573 600.97309144 -266.53814708 569.99435884 -266.53684425 539.01562405 C-266.5368035 538.04292671 -266.53676275 537.07022937 -266.53672076 536.06805635 C-266.53578326 514.71431174 -266.53388223 493.36056729 -266.53111274 472.00682284 C-266.53012533 464.3658859 -266.52918608 456.72494896 -266.52826061 449.08401202 C-266.52802845 447.18314784 -266.52779225 445.28228367 -266.52755202 443.38141949 C-266.52397238 414.97871112 -266.52701845 386.57601002 -266.53459811 358.17330255 C-266.5348465 357.24252676 -266.53509489 356.31175097 -266.5353508 355.35276985 C-266.53559885 354.42371141 -266.53584689 353.49465297 -266.53610246 352.53744124 C-266.54438141 321.18568995 -266.54132478 289.83395736 -266.52550857 258.48220874 C-266.52385154 255.11359821 -266.52224142 251.74498767 -266.52066803 248.37637711 C-266.52027741 247.54967138 -266.51988679 246.72296566 -266.51948433 245.87120825 C-266.51357313 232.79458376 -266.51768053 219.71798259 -266.52597505 206.6413602 C-266.53392196 193.77491043 -266.53110506 180.90849989 -266.51693278 168.04205508 C-266.50964385 161.16281231 -266.50695943 154.28364966 -266.51815073 147.40440977 C-266.52787374 141.14017037 -266.52367821 134.87609692 -266.50860875 128.6118695 C-266.50559928 126.36558654 -266.50755377 124.11928969 -266.51522657 121.87301782 C-266.56863299 105.03664117 -265.54245553 88.56767158 -260.37646484 72.41040039 C-259.99131714 71.17435059 -259.99131714 71.17435059 -259.59838867 69.91333008 C-246.4994578 29.08406103 -218.26293615 -3.95978988 -180.54443359 -24.20288086 C-121.2803516 -54.56682588 -49.38425978 -43.52867682 0 0 Z " fill="#0C77BD" transform="translate(2207.12646484375,1679.402099609375)"/>
<path d="M0 0 C6.55033212 4.2335706 12.77030467 8.79208856 18.9375 13.5625 C25.5544853 18.64531464 32.2102055 23.65036485 39 28.5 C46.48078388 33.84889382 53.80299634 39.38614969 61.10229492 44.97949219 C66.96209815 49.46390904 72.86383555 53.88420285 78.8125 58.25 C101.25476698 74.72456899 101.25476698 74.72456899 108.8125 80.875 C114.15784871 85.20473246 119.71609525 89.23378179 125.265625 93.29541016 C131.50598325 97.87272262 137.67027104 102.54205069 143.8125 107.25 C150.00780442 111.99519655 156.23808042 116.65469599 162.62329102 121.14038086 C167.93458392 124.89741358 173.08807844 128.85378893 178.25 132.8125 C184.76527568 137.80847678 191.32023574 142.72607163 198 147.5 C205.482777 152.85067296 212.80662171 158.39006609 220.10888672 163.98388672 C228.98563163 170.77543554 237.98245611 177.39719589 247 184 C257.92394855 191.9987071 268.76587995 200.08746659 279.51513672 208.31982422 C284.28722776 211.96469153 289.08697986 215.5475875 294 219 C300.915453 223.86642989 307.60702813 229.01106636 314.27929688 234.20507812 C319.48291194 238.21861085 324.80862301 241.82569115 330.3815918 245.30493164 C334.30223003 247.8430194 337.92204011 250.70539409 341.5625 253.625 C347.54877052 258.35422309 353.60172756 262.9447409 359.8125 267.375 C366.44641345 272.11299015 372.96672606 276.97904345 379.4375 281.9375 C389.20145256 289.41733568 399.07645717 296.73380755 409 304 C419.92394855 311.9987071 430.76587995 320.08746659 441.51513672 328.31982422 C446.81446466 332.3673889 452.16747433 336.30760604 457.62329102 340.14038086 C462.93458392 343.89741358 468.08807844 347.85378893 473.25 351.8125 C479.76527568 356.80847678 486.32023574 361.72607163 493 366.5 C500.482777 371.85067296 507.80662171 377.39006609 515.10888672 382.98388672 C523.98563163 389.77543554 532.98245611 396.39719589 542 403 C552.92394855 410.9987071 563.76587995 419.08746659 574.51513672 427.31982422 C579.28726096 430.96471688 584.08744284 434.54689583 589 438 C594.84120191 442.10586136 600.51929814 446.40898687 606.1875 450.75 C616.03561558 458.29131789 625.99239189 465.67225347 636 473 C646.92394855 480.9987071 657.76587995 489.08746659 668.51513672 497.31982422 C673.28724358 500.96470361 678.08718777 504.54727379 683 508 C690.13712143 513.02783946 697.0567167 518.33046816 703.98242188 523.64453125 C704.84802734 524.30839844 705.71363281 524.97226563 706.60546875 525.65625 C707.38043701 526.25244141 708.15540527 526.84863281 708.95385742 527.46289062 C710.59618917 528.69664801 712.29086847 529.86057898 714 531 C714 531.66 714 532.32 714 533 C566.985 533.495 566.985 533.495 417 534 C428.49538195 550.89153656 428.49538195 550.89153656 440.125 567.6875 C446.64801227 577.0381355 453.1044014 586.43223036 459.53125 595.84912109 C466.94630967 606.70794351 474.43965323 617.51110374 481.95629883 628.29980469 C486.69521483 635.10790369 491.39230576 641.94311439 496.06591797 648.79614258 C500.34085444 655.05629287 504.6650589 661.28128599 509 667.5 C515.56214736 676.91484669 522.06208679 686.37022921 528.53125 695.84912109 C535.26187272 705.70563476 542.05236582 715.51947275 548.875 725.3125 C555.47766186 734.79058995 562.01977981 744.30823923 568.53125 753.84912109 C575.26187272 763.70563476 582.05236582 773.51947275 588.875 783.3125 C595.47766186 792.79058995 602.01977981 802.30823923 608.53125 811.84912109 C615.26187272 821.70563476 622.05236582 831.51947275 628.875 841.3125 C635.47766186 850.79058995 642.01977981 860.30823923 648.53125 869.84912109 C655.26187272 879.70563476 662.05236582 889.51947275 668.875 899.3125 C675.47766186 908.79058995 682.01977981 918.30823923 688.53125 927.84912109 C695.94630967 938.70794351 703.43965323 949.51110374 710.95629883 960.29980469 C715.69521483 967.10790369 720.39230576 973.94311439 725.06591797 980.79614258 C729.34085444 987.05629287 733.6650589 993.28128599 738 999.5 C744.56214736 1008.91484669 751.06208679 1018.37022921 757.53125 1027.84912109 C765.6958399 1039.80557672 773.95333814 1051.69665323 782.2265625 1063.578125 C786.49622963 1069.71057045 790.75215366 1075.85242238 795 1082 C794.34 1082.33 793.68 1082.66 793 1083 C787.35207977 1078.47729405 781.82357894 1073.90107268 776.5 1069 C772.92207537 1065.70668301 769.28460334 1062.55348679 765.5 1059.5 C760.74404581 1055.66280969 756.24495199 1051.60614899 751.75 1047.46875 C749.06262366 1045.05621896 746.31034556 1042.7674379 743.5 1040.5 C738.74260332 1036.66164586 734.24216082 1032.60377641 729.74609375 1028.46484375 C727.08124834 1026.07292703 724.35168175 1023.80745116 721.5625 1021.5625 C717.02763839 1017.90493736 712.74463817 1014.05382973 708.48291016 1010.08837891 C704.37220724 1006.28601193 700.07724416 1002.75729408 695.71484375 999.24609375 C692.89326505 996.9116941 690.19409288 994.48009402 687.5 992 C683.92207537 988.70668301 680.28460334 985.55348679 676.5 982.5 C671.74404581 978.66280969 667.24495199 974.60614899 662.75 970.46875 C660.06262366 968.05621896 657.31034556 965.7674379 654.5 963.5 C649.74404581 959.66280969 645.24495199 955.60614899 640.75 951.46875 C638.06262366 949.05621896 635.31034556 946.7674379 632.5 944.5 C627.74404581 940.66280969 623.24495199 936.60614899 618.75 932.46875 C616.06262366 930.05621896 613.31034556 927.7674379 610.5 925.5 C605.74260332 921.66164586 601.24216082 917.60377641 596.74609375 913.46484375 C594.08124834 911.07292703 591.35168175 908.80745116 588.5625 906.5625 C584.02763839 902.90493736 579.74463817 899.05382973 575.48291016 895.08837891 C571.37220724 891.28601193 567.07724416 887.75729408 562.71484375 884.24609375 C559.89326505 881.9116941 557.19409288 879.48009402 554.5 877 C550.92207537 873.70668301 547.28460334 870.55348679 543.5 867.5 C538.74404581 863.66280969 534.24495199 859.60614899 529.75 855.46875 C527.06262366 853.05621896 524.31034556 850.7674379 521.5 848.5 C516.74404581 844.66280969 512.24495199 840.60614899 507.75 836.46875 C505.06262366 834.05621896 502.31034556 831.7674379 499.5 829.5 C494.74404581 825.66280969 490.24495199 821.60614899 485.75 817.46875 C483.06262366 815.05621896 480.31034556 812.7674379 477.5 810.5 C472.74260332 806.66164586 468.24216082 802.60377641 463.74609375 798.46484375 C461.08124834 796.07292703 458.35168175 793.80745116 455.5625 791.5625 C451.02763839 787.90493736 446.74463817 784.05382973 442.48291016 780.08837891 C438.37220724 776.28601193 434.07724416 772.75729408 429.71484375 769.24609375 C426.89326505 766.9116941 424.19409288 764.48009402 421.5 762 C417.92207537 758.70668301 414.28460334 755.55348679 410.5 752.5 C405.74404581 748.66280969 401.24495199 744.60614899 396.75 740.46875 C394.06262366 738.05621896 391.31034556 735.7674379 388.5 733.5 C383.74404581 729.66280969 379.24495199 725.60614899 374.75 721.46875 C372.06262366 719.05621896 369.31034556 716.7674379 366.5 714.5 C361.74260332 710.66164586 357.24216082 706.60377641 352.74609375 702.46484375 C350.08124834 700.07292703 347.35168175 697.80745116 344.5625 695.5625 C340.02763839 691.90493736 335.74463817 688.05382973 331.48291016 684.08837891 C327.37220724 680.28601193 323.07724416 676.75729408 318.71484375 673.24609375 C315.89326505 670.9116941 313.19409288 668.48009402 310.5 666 C306.92207537 662.70668301 303.28460334 659.55348679 299.5 656.5 C294.74404581 652.66280969 290.24495199 648.60614899 285.75 644.46875 C283.06262366 642.05621896 280.31034556 639.7674379 277.5 637.5 C272.74404581 633.66280969 268.24495199 629.60614899 263.75 625.46875 C261.06262366 623.05621896 258.31034556 620.7674379 255.5 618.5 C250.74404581 614.66280969 246.24495199 610.60614899 241.75 606.46875 C239.06262366 604.05621896 236.31034556 601.7674379 233.5 599.5 C228.74260332 595.66164586 224.24216082 591.60377641 219.74609375 587.46484375 C217.08124834 585.07292703 214.35168175 582.80745116 211.5625 580.5625 C207.02763839 576.90493736 202.74463817 573.05382973 198.48291016 569.08837891 C194.37220724 565.28601193 190.07724416 561.75729408 185.71484375 558.24609375 C182.89326505 555.9116941 180.19409288 553.48009402 177.5 551 C173.92207537 547.70668301 170.28460334 544.55348679 166.5 541.5 C161.74404581 537.66280969 157.24495199 533.60614899 152.75 529.46875 C150.06262366 527.05621896 147.31034556 524.7674379 144.5 522.5 C139.74404581 518.66280969 135.24495199 514.60614899 130.75 510.46875 C128.06262366 508.05621896 125.31034556 505.7674379 122.5 503.5 C117.74404581 499.66280969 113.24495199 495.60614899 108.75 491.46875 C106.06262366 489.05621896 103.31034556 486.7674379 100.5 484.5 C95.74260332 480.66164586 91.24216082 476.60377641 86.74609375 472.46484375 C84.08124834 470.07292703 81.35168175 467.80745116 78.5625 465.5625 C74.03348427 461.90965232 69.7523757 458.06685249 65.50048828 454.1015625 C61.25743518 450.16998964 56.82736325 446.54719433 52.27734375 442.97265625 C50 441 50 441 47 437 C110.69 437 174.38 437 240 437 C234.72 427.43 229.44 417.86 224 408 C221.36 403.215 218.72 398.43 216 393.5 C214.68128906 391.11007812 213.36257812 388.72015625 212.00390625 386.2578125 C209.65980751 382.0094318 207.31654957 377.76058907 204.97433472 373.51116943 C197.55414849 360.0490014 190.11605066 346.59721726 182.64428711 333.16357422 C177.73995092 324.3420674 172.86158212 315.50646655 167.98974609 306.66699219 C163.17677762 297.93519162 158.34634141 289.21334057 153.5 280.5 C148.33764383 271.21739294 143.19164365 261.92598426 138.0625 252.625 C137.56533981 251.72349213 137.56533981 251.72349213 137.05813599 250.80377197 C134.36791538 245.92515896 131.67874901 241.04596503 128.98962402 236.16674805 C126.63940764 231.90256088 124.28877586 227.63860307 121.9375 223.375 C121.60597931 222.77383362 121.27445862 222.17266724 120.93289185 221.55328369 C115.5233813 211.74555219 110.08860674 201.95203259 104.64428711 192.16357422 C99.73995092 183.3420674 94.86158212 174.50646655 89.98974609 165.66699219 C85.17677762 156.93519162 80.34634141 148.21334057 75.5 139.5 C70.33764383 130.21739294 65.19164365 120.92598426 60.0625 111.625 C59.73105988 111.02399475 59.39961975 110.4229895 59.05813599 109.80377197 C56.36791538 104.92515896 53.67874901 100.04596503 50.98962402 95.16674805 C48.63940764 90.90256088 46.28877586 86.63860307 43.9375 82.375 C43.60597931 81.77383362 43.27445862 81.17266724 42.93289185 80.55328369 C37.5306652 70.75875831 32.10330621 60.97837132 26.66625977 51.203125 C21.21074767 41.39027425 15.78438172 31.56148439 10.36523438 21.72851562 C9.73681641 20.58833984 9.10839844 19.44816406 8.4609375 18.2734375 C7.87022461 17.19803711 7.27951172 16.12263672 6.67089844 15.01464844 C5.60574446 13.09288904 4.52702256 11.17854384 3.43066406 9.27441406 C2.97143555 8.47487305 2.51220703 7.67533203 2.0390625 6.8515625 C1.64154785 6.17174316 1.2440332 5.49192383 0.83447266 4.79150391 C0 3 0 3 0 0 Z " fill="#5CB348" transform="translate(2258,2197)"/>
</svg>
